#!OML:ASF E:\emotionWalksFemale\Project 1\Capture day 1\Session 1\Female1.ASF
:FULLY-SPECIFIED
:DEGREES
268
root 8.9209 15.2294 14.667 -155.651 -6.37706 -181.235
lowerback 18.632 1.4713 -0.380667
upperback -1.45218 1.8522 0.274722
thorax -12.1462 0.877605 -0.00556736
lowerneck -12.5884 -4.75543 -8.59874
upperneck -10.3046 -6.31476 6.13106
head -0.69255 -3.43605 3.28079
rclavicle -1.09332e-014 -5.56597e-015
rhumerus 62.8006 -20.2385 -27.7891
rradius 70.7049
rwrist -19.5167
rhand -12.3406 -43.1617
rfingers 7.12502
rthumb 13.7288 -72.6888
lclavicle -1.09332e-014 -5.56597e-015
lhumerus 79.8199 16.4706 46.6051
lradius 61.6021
lwrist 21.0399
lhand -19.2442 -63.1538
lfingers 7.12502
lthumb 7.06942 -33.2919
rfemur -6.67053 -5.80138 25.1402
rtibia 31.5529
rfoot 7.85206 -16.0585
rtoes 1.43654
lfemur -12.7648 3.37073 -20.509
ltibia 37.5729
lfoot 2.61311 0.539496
ltoes -33.484
269
root 8.89785 15.3737 14.2807 -156.54 -6.67217 -180.957
lowerback 17.2607 1.26828 -0.0118655
upperback -2.16225 1.70409 0.277498
thorax -12.1438 0.801348 -0.15146
lowerneck -11.9715 -4.71833 -8.19951
upperneck -7.97049 -6.07181 5.93305
head -0.0540419 -3.2045 3.11798
rclavicle 1.5704e-014 -1.07344e-014
rhumerus 61.9787 -20.0455 -24.7808
rradius 69.9464
rwrist -19.2072
rhand -11.4111 -43.2362
rfingers 7.12502
rthumb 14.6244 -72.7005
lclavicle 1.5704e-014 -1.07344e-014
lhumerus 77.784 16.5665 43.772
lradius 63
lwrist 21.2579
lhand -19.2766 -62.9578
lfingers 7.12502
lthumb 7.03811 -33.0949
rfemur -2.66566 -3.47052 25.256
rtibia 27.1706
rfoot 12.1711 -19.4994
rtoes 4.48535
lfemur -8.88587 1.15828 -19.8009
ltibia 33.3769
lfoot 7.93811 2.10204
ltoes -32.9575
270
root 8.8732 15.5289 13.8882 -157.291 -6.96052 -180.822
lowerback 15.8976 1.07003 0.345116
upperback -3.01919 1.52171 0.165506
thorax -12.3038 0.694583 -0.411679
lowerneck -11.41 -4.63021 -7.70366
upperneck -5.23627 -5.79557 5.59728
head 0.705442 -2.96543 2.90162
rclavicle -2.04748e-014 0
rhumerus 61.0402 -19.6518 -21.6285
rradius 68.7042
rwrist -18.7497
rhand -10.1254 -43.4788
rfingers 7.12502
rthumb 15.8629 -72.849
lclavicle -2.04748e-014 0
lhumerus 75.5485 16.1492 41.0279
lradius 64.3683
lwrist 21.3777
lhand -18.8528 -63.0593
lfingers 7.12502
lthumb 7.44719 -33.2104
rfemur 1.07239 0.294974 25.6141
rtibia 23.1729
rfoot 12.5877 -26.6737
rtoes 22.431
lfemur -5.45847 -3.034 -19.5742
ltibia 29.7957
lfoot 12.9206 6.88814
ltoes -24.7038
271
root 8.83924 15.7018 13.491 -157.924 -7.17031 -180.693
lowerback 14.3275 0.92317 0.756871
upperback -3.70982 1.38464 0.0567838
thorax -12.1437 0.595684 -0.705199
lowerneck -11.1221 -4.47923 -7.20981
upperneck -2.60489 -5.49703 5.16834
head 1.47157 -2.74727 2.66872
rclavicle 1.51076e-014 -6.75868e-015
rhumerus 60.4044 -19.3733 -18.4851
rradius 66.9947
rwrist -17.9827
rhand -8.98246 -43.7994
rfingers 7.12502
rthumb 16.9633 -73.0787
lclavicle 1.51076e-014 -6.75868e-015
lhumerus 73.3532 15.7774 38.5154
lradius 65.7846
lwrist 21.2426
lhand -18.3512 -62.8814
lfingers 7.12502
lthumb 7.93141 -33.0502
rfemur 4.43775 4.8591 26.3096
rtibia 19.8462
rfoot 5.47215 -35.4423
rtoes 44.8033
lfemur -2.57663 -9.45037 -20.0229
ltibia 27.1824
lfoot 14.2099 15.5828
ltoes -2.40905
272
root 8.80293 15.8911 13.1006 -158.308 -7.45451 -180.553
lowerback 12.5025 0.915211 1.35505
upperback -4.12709 1.44609 0.0539175
thorax -11.5088 0.580944 -1.02556
lowerneck -11.067 -4.54908 -7.34695
upperneck -0.540411 -5.47764 4.83442
head 2.14354 -2.7011 2.57754
rclavicle 8.24956e-015 -3.57812e-015
rhumerus 59.6867 -19.5137 -15.2045
rradius 65.2808
rwrist -16.574
rhand -8.49381 -43.715
rfingers 7.12502
rthumb 17.4336 -72.9533
lclavicle 8.24956e-015 -3.57812e-015
lhumerus 71.6729 15.6063 36.6685
lradius 67.0859
lwrist 20.8373
lhand -18.1004 -62.7263
lfingers 7.12502
lthumb 8.1734 -32.9043
rfemur 7.15625 8.56612 27.2169
rtibia 17.4106
rfoot -3.11239 -40.862
rtoes 54.8089
lfemur -0.273893 -16.6591 -21.0135
ltibia 25.6681
lfoot 8.2854 26.7567
ltoes 34.3747
273
root 8.77134 16.0789 12.7293 -158.571 -8.02359 -180.496
lowerback 10.8243 0.799186 1.96951
upperback -4.54085 1.33128 0.00986383
thorax -10.9584 0.475759 -1.36273
lowerneck -10.7502 -4.4866 -7.10531
upperneck 0.826739 -5.3806 4.42229
head 2.51606 -2.64327 2.40237
rclavicle 1.22253e-014 -5.1684e-015
rhumerus 59.0811 -19.7419 -13.1155
rradius 63.5816
rwrist -14.4077
rhand -7.93393 -42.9715
rfingers 7.12502
rthumb 17.9724 -72.1611
lclavicle 1.22253e-014 -5.1684e-015
lhumerus 69.968 15.4857 34.7148
lradius 68.2524
lwrist 20.534
lhand -17.9346 -62.6431
lfingers 7.12502
lthumb 8.33345 -32.8275
rfemur 9.1289 9.91031 27.9692
rtibia 16.1355
rfoot -2.65167 -45.4142
rtoes 58.4685
lfemur 1.54048 -20.8979 -21.8627
ltibia 25.0894
lfoot -3.63508 33.3524
ltoes 54.6488
274
root 8.74218 16.2571 12.3722 -158.643 -8.54263 -180.581
lowerback 8.68131 0.78 2.39317
upperback -4.62253 1.27944 -0.0804419
thorax -9.76299 0.428142 -1.64366
lowerneck -10.4561 -4.4847 -6.80659
upperneck 1.37932 -5.40401 4.16364
head 2.62848 -2.65456 2.26198
rclavicle -4.67144e-015 -1.11319e-014
rhumerus 58.5805 -20.6842 -11.7103
rradius 62.1105
rwrist -12.3793
rhand -6.71703 -42.1162
rfingers 7.12502
rthumb 19.1429 -71.1941
lclavicle -4.67144e-015 -1.11319e-014
lhumerus 68.7523 15.771 33.1358
lradius 69.2315
lwrist 20.417
lhand -17.5971 -62.5223
lfingers 7.12502
lthumb 8.65916 -32.7199
rfemur 10.2016 8.96407 28.0451
rtibia 15.9676
rfoot -0.24159 -46.9544
rtoes 56.6383
lfemur 2.51067 -20.5481 -22.1143
ltibia 25.1028
lfoot -12.1296 34.9996
ltoes 56.9008
